<?xml version="1.0" encoding="UTF-8"?>
<svg version="1.1" xmlns="http://www.w3.org/2000/svg" width="3684" height="3684">
<path d="M0 0 C1.56234375 0.25740967 1.56234375 0.25740967 3.15625 0.52001953 C67.58086571 11.24786849 125.84989549 40.11636045 174 84 C174.8353125 84.7425 175.670625 85.485 176.53125 86.25 C184.90671867 93.69486104 192.73665645 101.46704762 200 110 C200.79921875 110.91007812 201.5984375 111.82015625 202.421875 112.7578125 C247.00242279 163.8948065 274.16144672 229.73749568 281 297 C281.14139404 298.29659546 281.14139404 298.29659546 281.28564453 299.61938477 C282.2397087 309.37422155 282.24356564 319.14506462 282.25 328.9375 C282.25101212 330.32702881 282.25101212 330.32702881 282.25204468 331.74462891 C282.18364807 391.17680759 266.57023792 449.8772797 236 501 C235.54157715 501.76860352 235.0831543 502.53720703 234.61083984 503.32910156 C227.49047968 515.16022454 219.62099068 526.22020161 211 537 C210.55994629 537.55187988 210.11989258 538.10375977 209.66650391 538.67236328 C207.15082512 541.81572422 204.59125818 544.91877682 202 548 C201.32839844 548.80695312 200.65679688 549.61390625 199.96484375 550.4453125 C199.33707031 551.18523438 198.70929687 551.92515625 198.0625 552.6875 C197.51722656 553.33074219 196.97195313 553.97398437 196.41015625 554.63671875 C195 556 195 556 193 556 C192.6282666 555.33170166 192.2565332 554.66340332 191.87353516 553.97485352 C182.5341651 537.19311466 182.5341651 537.19311466 172.88989258 520.5859375 C169.14775591 514.27328523 165.47618322 507.92096234 161.8125 501.5625 C161.17449463 500.45527588 160.53648926 499.34805176 159.87915039 498.20727539 C158.57110523 495.93662932 157.26324552 493.66587642 155.95556641 491.39501953 C153.42622636 487.00388312 150.89388017 482.6144854 148.36108398 478.2253418 C147.12459977 476.08245934 145.88843218 473.93939415 144.65258789 471.79614258 C141.73255034 466.73246479 138.81023524 461.67014159 135.87988281 456.61242676 C134.50081969 454.23187827 133.12304215 451.85058694 131.74536133 449.46923828 C130.77615342 447.7951735 129.80509435 446.12218088 128.83398438 444.44921875 C128.24423828 443.42957031 127.65449219 442.40992188 127.046875 441.359375 C126.52963867 440.46702148 126.01240234 439.57466797 125.47949219 438.65527344 C124.74714355 437.34091309 124.74714355 437.34091309 124 436 C123.41863281 434.96254639 122.83726562 433.92509277 122.23828125 432.85620117 C121 430 121 430 122.140625 426.94140625 C122.83671875 425.82636719 123.5328125 424.71132812 124.25 423.5625 C149.62390838 380.02731879 152.87320461 325.11614648 140.4375 277.08984375 C129.39173475 236.7651299 105.01776634 199.68048493 72 174 C71.45102051 173.56929199 70.90204102 173.13858398 70.33642578 172.69482422 C60.46578974 165.00287953 50.11252109 158.73361385 39 153 C37.96020996 152.45666016 37.96020996 152.45666016 36.89941406 151.90234375 C-0.59142003 132.52224639 -47.62448026 126.2233746 -89 135 C-89.94987793 135.19867676 -90.89975586 135.39735352 -91.87841797 135.60205078 C-127.72868634 143.33014836 -160.0419729 160.14830988 -187 185 C-187.5784668 185.53318848 -188.15693359 186.06637695 -188.75292969 186.61572266 C-218.50703927 214.40865403 -237.25270071 251.54847416 -246 291 C-246.17934082 291.77617676 -246.35868164 292.55235352 -246.54345703 293.35205078 C-251.84686564 317.23582241 -251.28883649 346.17977609 -246 370 C-245.82307617 370.79809082 -245.64615234 371.59618164 -245.46386719 372.41845703 C-244.17908134 378.00916158 -242.66861845 383.51241966 -241 389 C-240.79036621 389.69480469 -240.58073242 390.38960937 -240.36474609 391.10546875 C-237.10241709 401.65341473 -232.57150341 411.43625026 -227.51904297 421.24707031 C-227.04998535 422.18131836 -226.58092773 423.11556641 -226.09765625 424.078125 C-225.66976807 424.90731445 -225.24187988 425.73650391 -224.80102539 426.59082031 C-223.54431177 430.37053685 -224.42531225 432.83211782 -226.14477539 436.32641602 C-226.62422607 437.12748779 -227.10367676 437.92855957 -227.59765625 438.75390625 C-228.14357422 439.67623047 -228.68949219 440.59855469 -229.25195312 441.54882812 C-230.14817383 443.0405957 -230.14817383 443.0405957 -231.0625 444.5625 C-232.34633034 446.72971204 -233.62882957 448.89771303 -234.91015625 451.06640625 C-235.58191895 452.20094238 -236.25368164 453.33547852 -236.94580078 454.50439453 C-240.01795475 459.71490322 -243.00459561 464.97422492 -245.99459839 470.23214722 C-251.83158928 480.49564836 -257.73529216 490.71782173 -263.70214844 500.90649414 C-267.91829755 508.11716256 -272.07567122 515.3597346 -276.21157837 522.61657715 C-277.2370105 524.41472229 -278.26404586 526.2119405 -279.29174805 528.00878906 C-282.25062703 533.18218869 -285.20357102 538.35833504 -288.12890625 543.55078125 C-289.0229148 545.11748588 -289.91740188 546.68391761 -290.8125 548.25 C-291.20276367 548.95310303 -291.59302734 549.65620605 -291.99511719 550.38061523 C-293.08203125 552.265625 -293.08203125 552.265625 -295 555 C-298 555 -298 555 -300.171875 553.078125 C-350.74040994 497.60597456 -383.86348394 420.11581051 -384.203125 344.68359375 C-384.21364647 343.11387817 -384.21364647 343.11387817 -384.22438049 341.51245117 C-384.24178899 338.15408985 -384.24823272 334.79590479 -384.25 331.4375 C-384.25067474 330.29072784 -384.25134949 329.14395569 -384.25204468 327.96243286 C-384.23656595 311.43042703 -383.86436782 295.31991033 -381 279 C-380.74259033 277.43765625 -380.74259033 277.43765625 -380.47998047 275.84375 C-370.05202066 213.22007714 -342.45263565 156.82751234 -301 109 C-300.30777344 108.19433594 -299.61554688 107.38867188 -298.90234375 106.55859375 C-289.01286901 95.29716875 -278.39077502 84.26028524 -266.5703125 75.015625 C-263.82436275 72.86226623 -261.20351529 70.59304245 -258.5625 68.3125 C-214.08238954 31.40710745 -159.39111212 10.10204442 -103 0 C-102.01209473 -0.18079102 -101.02418945 -0.36158203 -100.00634766 -0.54785156 C-68.12732263 -6.08007498 -31.8291281 -5.586448 0 0 Z " fill="#FFFFFF" transform="translate(680,1503)"/>
<path d="M0 0 C21.45 0 42.9 0 65 0 C76.61111111 13.72222222 76.61111111 13.72222222 81.90625 20.40625 C84.38811041 23.48079349 86.93848513 26.49179044 89.5 29.5 C93.39498709 34.07422189 97.18773515 38.7116004 100.91796875 43.421875 C103.33084092 46.40967168 105.81796079 49.33056197 108.3125 52.25 C112.11744166 56.7063918 115.78798412 61.24171687 119.375 65.875 C123.84984563 71.64753471 128.55823743 77.17759172 133.37011719 82.67089844 C137.03012145 86.85594814 140.54907013 91.12287526 143.98828125 95.4921875 C146.37093089 98.46240316 148.83857627 101.35600849 151.3125 104.25 C155.11754039 108.70628263 158.7882291 113.24154414 162.375 117.875 C166.96714747 123.80443039 171.8025831 129.48905446 176.76123047 135.11474609 C177.28475098 135.70980957 177.80827148 136.30487305 178.34765625 136.91796875 C178.81179932 137.44156982 179.27594238 137.9651709 179.75415039 138.50463867 C181 140 181 140 183 143 C183.495 72.215 183.495 72.215 184 0 C209.41 0 234.82 0 261 0 C261 90.42 261 180.84 261 274 C239.22 274 217.44 274 195 274 C192.36 270.7 189.72 267.4 187 264 C185.23945181 261.90796784 183.4698928 259.82345228 181.6875 257.75 C177.88092891 253.29504961 174.21191217 248.75823054 170.625 244.125 C166.21992069 238.44153739 161.58085013 233.00766588 156.83642578 227.60595703 C153.25177413 223.50329827 149.82898453 219.31203628 146.5 215 C142.07104605 209.26391492 137.40392816 203.77908901 132.62939453 198.32861328 C128.96962142 194.14367094 125.45078674 189.87694291 122.01171875 185.5078125 C119.62906911 182.53759684 117.16142373 179.64399151 114.6875 176.75 C110.88244997 172.29370607 107.2120111 167.75827696 103.625 163.125 C99.19548382 157.41094012 94.55405688 151.91735027 89.76611328 146.50048828 C85.32031807 141.4522587 81.22141686 136.27677108 77 131 C76.67 178.19 76.34 225.38 76 274 C50.92 274 25.84 274 0 274 C0 183.58 0 93.16 0 0 Z " fill="#FFFFFF" transform="translate(2788,1708)"/>
<path d="M0 0 C0.35078613 0.63164063 0.70157227 1.26328125 1.06298828 1.9140625 C8.70985139 15.66702135 16.48090039 29.33369051 24.4375 42.91015625 C28.1321331 49.21570419 31.78852681 55.54294436 35.4375 61.875 C36.06003662 62.95515381 36.68257324 64.03530762 37.32397461 65.14819336 C38.58576826 67.33796334 39.84740534 69.52782355 41.10888672 71.71777344 C44.23680148 77.14659942 47.36858448 82.57319281 50.5 88 C51.75001879 90.16665583 53.00001878 92.3333225 54.25 94.5 C54.86875 95.5725 55.4875 96.645 56.125 97.75 C58 101 59.875 104.25 61.75 107.5 C62.36866943 108.57233887 62.98733887 109.64467773 63.62475586 110.74951172 C64.8756448 112.91776264 66.12645852 115.08605697 67.37719727 117.25439453 C70.48798335 122.64717915 73.60004238 128.03922093 76.71484375 133.4296875 C83.53502637 145.23629484 90.3232326 157.06027 97.07736206 168.90472412 C102.23335445 177.94329428 107.45320673 186.94277138 112.71118164 195.92236328 C117.5337717 204.17075872 122.27793272 212.46274156 127.00540161 220.76583862 C130.6679252 227.19767727 134.34727453 233.61823567 138.08984375 240.00390625 C139.06147461 241.66196289 139.06147461 241.66196289 140.05273438 243.35351562 C141.2818617 245.44621634 142.51351417 247.53743661 143.74804688 249.62695312 C144.29396484 250.55572266 144.83988281 251.48449219 145.40234375 252.44140625 C145.88179443 253.25295166 146.36124512 254.06449707 146.85522461 254.90063477 C148 257 148 257 149 260 C134.64116124 260.56291649 120.28405 260.98330212 105.91641045 261.24349213 C99.24240035 261.36844174 92.57781163 261.53753674 85.90771484 261.81054688 C79.46196779 262.07270192 73.02333404 262.21506027 66.57266617 262.27705383 C64.12135807 262.32117576 61.67041232 262.4073712 59.22216415 262.53752136 C43.63096909 263.33286042 43.63096909 263.33286042 37 260 C30.97713104 254.0801869 27.53472006 246.45033356 24.22920513 238.78816032 C22.69092714 235.29894152 20.86307805 232.13553563 18.87890625 228.8828125 C17.77280848 226.96390411 16.66732402 225.04464204 15.5625 223.125 C14.30212115 220.93747821 13.04170334 218.74997887 11.78125 216.5625 C11.15605469 215.47710938 10.53085937 214.39171875 9.88671875 213.2734375 C8.0203162 210.0352484 6.15126237 206.79860562 4.28125 203.5625 C-2.53821105 191.75882839 -9.32467146 179.93720674 -16.07736206 168.09527588 C-21.23335445 159.05670572 -26.45320673 150.05722862 -31.71118164 141.07763672 C-36.53500436 132.82713297 -41.27867901 124.5321407 -46.00942993 116.2281189 C-51.41058807 106.74957571 -56.87479766 97.30934479 -62.39648438 87.90039062 C-62.92951172 86.99095703 -63.46253906 86.08152344 -64.01171875 85.14453125 C-64.51622559 84.28424316 -65.02073242 83.42395508 -65.54052734 82.53759766 C-67.4078349 79.29089396 -69.18239957 75.99727862 -70.93286133 72.6862793 C-71.90180752 70.83382522 -71.90180752 70.83382522 -74 70 C-74.27295898 70.71953857 -74.54591797 71.43907715 -74.82714844 72.18041992 C-75.98060771 74.9533802 -77.29738687 77.4947937 -78.765625 80.11328125 C-79.31847168 81.10110596 -79.87131836 82.08893066 -80.44091797 83.10668945 C-81.03791504 84.16460693 -81.63491211 85.22252441 -82.25 86.3125 C-82.87406738 87.42262451 -83.49813477 88.53274902 -84.14111328 89.67651367 C-88.88369692 98.08587771 -93.72246106 106.43691436 -98.60644531 114.76489258 C-103.12670554 122.47854242 -107.57488657 130.23158834 -112 138 C-116.95349446 146.69418163 -121.9437863 155.36497675 -127 164 C-132.0318979 172.5951729 -137.00389124 181.22312222 -141.9375 189.875 C-148.33733473 201.09776189 -154.77283414 212.29922875 -161.23828125 223.484375 C-163.53740023 227.46247583 -165.83040925 231.44396578 -168.11558533 235.43008423 C-169.49364753 237.83366575 -170.87359451 240.2361628 -172.25363159 242.63861084 C-173.22631412 244.33372219 -174.19632077 246.0303681 -175.16625977 247.72705078 C-175.75592529 248.7529834 -176.34559082 249.77891602 -176.953125 250.8359375 C-177.47036133 251.73876465 -177.98759766 252.6415918 -178.52050781 253.57177734 C-181.26393386 258.07443666 -181.26393386 258.07443666 -183 260 C-185.10267162 260.49219131 -185.10267162 260.49219131 -187.57475281 260.48101807 C-188.98189545 260.48926605 -188.98189545 260.48926605 -190.41746521 260.49768066 C-191.44461136 260.48329956 -192.47175751 260.46891846 -193.5300293 260.45410156 C-195.15465591 260.45497772 -195.15465591 260.45497772 -196.81210327 260.45587158 C-200.39979869 260.45308006 -203.98666809 260.42193634 -207.57421875 260.390625 C-210.05857387 260.38316645 -212.54293487 260.3774717 -215.02729797 260.37347412 C-220.90285088 260.35975088 -226.77809777 260.32821093 -232.65352517 260.28807616 C-239.99878653 260.23898966 -247.34406521 260.21749869 -254.68945312 260.1953125 C-267.79311995 260.15238839 -280.89654116 260.08486703 -294 260 C-292.7282356 256.06804528 -291.38267032 252.63344163 -289.26953125 249.078125 C-288.44787476 247.68424561 -288.44787476 247.68424561 -287.60961914 246.26220703 C-287.01656982 245.26817871 -286.42352051 244.27415039 -285.8125 243.25 C-284.53580222 241.08632451 -283.25978329 238.92224834 -281.984375 236.7578125 C-281.32501953 235.64180664 -280.66566406 234.52580078 -279.98632812 233.37597656 C-276.81074644 227.9787367 -273.6862344 222.55236 -270.5625 217.125 C-269.30341652 214.94008624 -268.04430177 212.75519051 -266.78515625 210.5703125 C-266.16012207 209.48524414 -265.53508789 208.40017578 -264.89111328 207.28222656 C-261.76319852 201.85340058 -258.63141552 196.42680719 -255.5 191 C-254.24998121 188.83334417 -252.99998122 186.6666775 -251.75 184.5 C-244.25 171.5 -244.25 171.5 -242.37524414 168.25048828 C-241.1243552 166.08223736 -239.87354148 163.91394303 -238.62280273 161.74560547 C-235.51201665 156.35282085 -232.39995762 150.96077907 -229.28515625 145.5703125 C-222.46497363 133.76370516 -215.6767674 121.93973 -208.92263794 110.09527588 C-203.76664555 101.05670572 -198.54679327 92.05722862 -193.28881836 83.07763672 C-188.46263803 74.82310059 -183.71716105 66.52378058 -178.98352051 58.21603394 C-173.72530223 48.99009267 -168.40299161 39.80333132 -163.03857422 30.63867188 C-157.28552994 20.80104941 -151.63221055 10.90718657 -146 1 C-141.66232837 2.54155438 -137.93908331 4.81604219 -134.0625 7.25 C-107.64621716 23.38428266 -76.06755124 28.24139977 -46 21 C-32.4951006 17.5013214 -11.78766508 0 0 0 Z " fill="#FFFFFF" transform="translate(702,1924)"/>
<path d="M0 0 C0.73734375 0.67289063 1.4746875 1.34578125 2.234375 2.0390625 C26.94782807 25.43797019 41.07580428 60.62250417 42.2890625 94.29296875 C43.09156631 134.00661905 30.4537569 170.74221354 3.10327148 199.94580078 C-24.23424784 228.14073319 -64.35354632 243.23761944 -103.203125 244.18359375 C-144.14410277 244.78346156 -183.22879984 234.87944394 -215 208 C-216.21816406 206.98486328 -216.21816406 206.98486328 -217.4609375 205.94921875 C-244.95714409 182.22615092 -260.03949906 147.77921198 -263 112 C-265.10239546 74.7026959 -254.97502734 37.45716046 -230 9 C-202.50203144 -21.3017128 -165.29779099 -39.49027021 -124.21875 -41.91015625 C-77.40178481 -43.21694047 -34.88622017 -32.92242632 0 0 Z M-164 45 C-174.19483528 56.71962804 -180.36406767 69.69050505 -183 85 C-183.226875 86.258125 -183.45375 87.51625 -183.6875 88.8125 C-185.99179429 112.24766324 -181.22212652 135.22053909 -166.59765625 154.1015625 C-154.27505846 168.77957712 -137.12119813 177.27477912 -118 179 C-95.77586199 180.36763926 -77.09430479 174.08118311 -59.9453125 160.35546875 C-46.27654315 147.91499895 -37.91721163 126.94988365 -36.87402344 108.80932617 C-36.09506654 85.17685847 -40.93562421 62.83061101 -57.41699219 45.01416016 C-70.83055227 31.14286732 -87.87897308 24.06925179 -107.0625 22.796875 C-128.26439175 22.45854694 -149.07498132 29.4221972 -164 45 Z " fill="#FFFFFF" transform="translate(2706,1744)"/>
<path d="M0 0 C23.3475 -0.061875 46.695 -0.12375 70.75 -0.1875 C78.08573242 -0.21481201 85.42146484 -0.24212402 92.97949219 -0.27026367 C102.02978516 -0.28381348 102.02978516 -0.28381348 106.28448486 -0.28633118 C109.21701048 -0.28909388 112.14936839 -0.30020471 115.08184814 -0.31672668 C150.26437642 -0.50603753 187.36765825 2.4205232 215 27 C215.78745605 27.69319336 215.78745605 27.69319336 216.59082031 28.40039062 C234.26020153 44.19621707 245.02100562 65.31620154 247 89 C248.60551984 117.67955385 243.60079851 143.85912652 224.5402832 166.20019531 C216.2066308 175.50874898 206.15593932 182.47207424 195 188 C199.92202979 195.84291175 205.02563758 203.5432205 210.25 211.1875 C211.0056466 212.29565881 211.761179 213.40389549 212.51660156 214.51220703 C217.43337018 221.72220026 222.36862849 228.91941954 227.3203125 236.10546875 C230.98748814 241.42963384 234.63319999 246.76852842 238.27709961 252.10864258 C240.77233761 255.76167102 243.27681664 259.40654308 245.82421875 263.0234375 C246.46012939 263.92896362 246.46012939 263.92896362 247.10888672 264.8527832 C248.23154796 266.44750869 249.35970399 268.038362 250.48828125 269.62890625 C252 272 252 272 252 274 C241.18659356 274.27851374 230.37404493 274.49148927 219.5577774 274.62174606 C214.53462218 274.68427854 209.51392674 274.76901994 204.4921875 274.90527344 C199.64198333 275.03604322 194.79413787 275.10748296 189.94230652 275.13852692 C188.09525913 275.1606354 186.24833563 275.20381597 184.40229797 275.26876068 C169.9416244 275.75708015 169.9416244 275.75708015 165.16212463 271.43185425 C163.09986639 268.36571203 161.54101627 265.35207465 160 262 C158.85442167 260.2412109 157.68084421 258.49991951 156.46484375 256.7890625 C155.89080811 255.94802979 155.31677246 255.10699707 154.7253418 254.24047852 C154.135354 253.37737061 153.54536621 252.5142627 152.9375 251.625 C152.30046143 250.69163818 151.66342285 249.75827637 151.00708008 248.79663086 C148.34384384 244.89466491 145.67907871 240.99374522 143.01367188 237.09326172 C141.07097339 234.25011188 139.12923095 231.40631067 137.1875 228.5625 C136.61443115 227.72477051 136.0413623 226.88704102 135.45092773 226.02392578 C134.88317627 225.19231934 134.3154248 224.36071289 133.73046875 223.50390625 C133.1281543 222.65787842 132.52583984 221.81185059 131.90527344 220.94018555 C130.41575471 218.6415856 129.25493636 216.50875617 128.08691406 214.05395508 C124.39436896 206.65888004 124.39436896 206.65888004 117.7638855 202.18783569 C111.31747246 200.95423707 104.90358775 201.30046552 98.375 201.5625 C88.289375 201.7790625 88.289375 201.7790625 78 202 C78 225.76 78 249.52 78 274 C52.26 274 26.52 274 0 274 C0 183.58 0 93.16 0 0 Z M78 62 C78 88.07 78 114.14 78 141 C90.1584375 141.0928125 90.1584375 141.0928125 102.5625 141.1875 C105.08849854 141.21481201 107.61449707 141.24212402 110.21704102 141.27026367 C135.50516219 141.55395102 135.50516219 141.55395102 157.3125 129.92578125 C166.22093763 120.54244529 168.52555346 110.68083541 168.27734375 97.99609375 C167.82680679 88.7051698 164.7454216 79.56514307 158 73 C149.10328896 65.67430127 138.77481972 61.85996585 127.27001953 61.88647461 C125.59613159 61.88665588 125.59613159 61.88665588 123.88842773 61.88684082 C122.15314819 61.89451477 122.15314819 61.89451477 120.3828125 61.90234375 C118.77007446 61.90385437 118.77007446 61.90385437 117.12475586 61.90539551 C113.12482632 61.91061072 109.12491204 61.92457196 105.125 61.9375 C96.17375 61.958125 87.2225 61.97875 78 62 Z " fill="#FFFFFF" transform="translate(1466,1708)"/>
<path d="M0 0 C25.74 0 51.48 0 78 0 C95.83654972 39.51481785 95.83654972 39.51481785 103.96893311 58.18777466 C108.51505822 68.62582042 113.11642327 79.03798606 117.75 89.4375 C123.45884987 102.25252522 129.12004307 115.08762827 134.75 127.9375 C141.51784879 143.38231319 148.3415826 158.80152745 155.19799805 174.20721436 C161.79845569 189.03779733 168.37379795 203.87922906 174.92736816 218.73059082 C179.18562181 228.38034664 183.45193095 238.02631719 187.74609375 247.66015625 C188.12434296 248.50914993 188.50259216 249.35814362 188.89230347 250.23286438 C190.68522753 254.2566692 192.48009703 258.27958598 194.27832031 262.30102539 C194.90827167 263.71367386 195.53815844 265.12635114 196.16796875 266.5390625 C196.45755966 267.18468643 196.74715057 267.83031036 197.04551697 268.49549866 C199 272.8865223 199 272.8865223 199 274 C171.94 274 144.88 274 117 274 C109.85253231 256.72695308 102.81187488 239.40812469 96 222 C58.05 222 20.1 222 -19 222 C-25.93 239.16 -32.86 256.32 -40 274 C-66.4 274 -92.8 274 -120 274 C-117.96954104 267.90862311 -115.88768414 262.21637334 -113.2265625 256.42578125 C-112.86673279 255.63251938 -112.50690308 254.83925751 -112.13616943 254.0219574 C-111.36772608 252.32846767 -110.5974177 250.63582315 -109.82537842 248.94396973 C-107.77437413 244.44775785 -105.73875046 239.944597 -103.703125 235.44140625 C-103.29641571 234.5422348 -102.88970642 233.64306335 -102.47067261 232.71664429 C-99.02859029 225.09334272 -95.67922627 217.43402643 -92.375 209.75 C-87.76085696 199.02892429 -83.06474166 188.34802743 -78.3125 177.6875 C-72.56352139 164.78847571 -66.85709031 151.87161827 -61.1875 138.9375 C-54.99995346 124.82410122 -48.79347466 110.71928285 -42.5625 96.625 C-42.17078613 95.73887024 -41.77907227 94.85274048 -41.37548828 93.9397583 C-37.76487853 85.77229341 -34.15259917 77.60556721 -30.54003906 69.43896484 C-28.48288354 64.78845145 -26.42634142 60.13766711 -24.37008667 55.48675537 C-23.25381648 52.96246549 -22.13682609 50.43849534 -21.01977539 47.91455078 C-13.96684677 31.96291865 -6.99100545 15.97944104 0 0 Z M38 78 C30.13546075 96.70188455 22.54900725 115.51470566 15.01068878 134.34989548 C14.24759184 136.25601529 13.48382529 138.16186563 12.71990967 140.06765747 C11.27444567 143.67436748 9.83225605 147.28238108 8.390625 150.890625 C7.94741913 151.99665573 7.50421326 153.10268646 7.0475769 154.24223328 C6.64548004 155.25058731 6.24338318 156.25894135 5.82910156 157.29785156 C5.47446838 158.1852301 5.11983521 159.07260864 4.75445557 159.98687744 C3.94151106 161.79775798 3.94151106 161.79775798 4 163 C26.44 163 48.88 163 72 163 C71.08102713 158.40513563 69.69373812 154.39748459 67.94897461 150.08862305 C67.63671432 149.30760727 67.32445404 148.52659149 67.00273132 147.72190857 C65.97334873 145.15018866 64.93788725 142.58096335 63.90234375 140.01171875 C63.18594887 138.22539599 62.46993541 136.43892021 61.75428772 134.65229797 C59.87244999 129.95723517 57.98544309 125.26426683 56.09735107 120.57171631 C54.17049751 115.78018522 52.24854143 110.98669079 50.32617188 106.19335938 C46.55557106 96.79364524 42.77950625 87.39613656 39 78 C38.67 78 38.34 78 38 78 Z " fill="#FFFFFF" transform="translate(1246,1708)"/>
<path d="M0 0 C25.74 0 51.48 0 78 0 C85.15283203 16.18798828 92.30566406 32.37597656 99.45849609 48.56396484 C99.85121704 49.4527533 100.24393799 50.34154175 100.64855957 51.25726318 C101.43168448 53.02960065 102.21480623 54.80193952 102.9979248 56.57427979 C104.95313192 60.9992598 106.90839561 65.42421479 108.86376953 69.84912109 C112.45662325 77.97970361 116.04905267 86.11047238 119.63948059 94.24212646 C121.65522012 98.80736888 123.67128358 103.37246819 125.6875 107.9375 C126.08387665 108.83498962 126.4802533 109.73247925 126.88864136 110.65716553 C132.58583024 123.55523687 138.30672936 136.44256572 144.04147339 149.32397461 C149.69457379 162.02579833 155.28848299 174.75308318 160.8671875 187.48773193 C165.30869843 197.62452308 169.77021659 207.75199701 174.26953125 217.86328125 C174.71193146 218.85750595 175.15433167 219.85173065 175.61013794 220.87608337 C177.74171749 225.66456793 179.87572223 230.45195726 182.01269531 235.23803711 C186.08700361 244.37200695 190.12288188 253.52196534 194.08984375 262.703125 C194.67917442 264.05745636 194.67917442 264.05745636 195.28041077 265.43914795 C195.63767746 266.2703717 195.99494415 267.10159546 196.36303711 267.95800781 C196.6800206 268.69206848 196.99700409 269.42612915 197.32359314 270.18243408 C198 272 198 272 198 274 C171.27 274 144.54 274 117 274 C113.86642691 267.10613919 110.81507357 260.26717402 108.01171875 253.24609375 C107.66365677 252.37855972 107.31559479 251.5110257 106.95698547 250.61720276 C106.23231912 248.80871457 105.5089526 246.99970501 104.78686523 245.19018555 C103.67683083 242.41078562 102.5603043 239.63405084 101.44335938 236.85742188 C100.73658946 235.09130174 100.03019518 233.32503122 99.32421875 231.55859375 C98.98992355 230.72847275 98.65562836 229.89835175 98.311203 229.04307556 C96 223.22943074 96 223.22943074 96 221 C57.72 221 19.44 221 -20 221 C-20.33 222.65 -20.66 224.3 -21 226 C-21.58055971 227.67188944 -22.20261571 229.32974406 -22.85766602 230.97387695 C-23.24329712 231.94780396 -23.62892822 232.92173096 -24.02624512 233.9251709 C-24.43137329 234.93599731 -24.83650146 235.94682373 -25.25390625 236.98828125 C-25.62640503 237.9268396 -25.99890381 238.86539795 -26.38269043 239.83239746 C-27.77132349 243.32761072 -29.16735142 246.81988237 -30.5625 250.3125 C-33.676875 258.129375 -36.79125 265.94625 -40 274 C-66.4 274 -92.8 274 -120 274 C-117.94847804 267.84543412 -115.82443609 262.03859321 -113.18359375 256.15625 C-112.81532974 255.32665771 -112.44706573 254.49706543 -112.06764221 253.64233398 C-111.27501635 251.85799896 -110.48052346 250.07449231 -109.68432617 248.29174805 C-107.9722829 244.45834002 -106.26928557 240.62093361 -104.56558228 236.78381348 C-103.68192585 234.7939362 -102.79778657 232.80427329 -101.91317749 230.81481934 C-97.94677715 221.89249263 -94.01824576 212.95383459 -90.09991455 204.01031494 C-83.61246898 189.20413611 -77.09829823 174.40989481 -70.5625 159.625 C-70.16918488 158.73524475 -69.77586975 157.8454895 -69.37063599 156.92877197 C-66.18201215 149.71604137 -62.99209438 142.5038832 -59.80212402 135.29174805 C-57.01331109 128.98643274 -54.22501077 122.6808911 -51.4375 116.375 C-51.04410431 115.48508362 -50.65070862 114.59516724 -50.24539185 113.67828369 C-44.47710873 100.62752281 -38.73119942 87.56708436 -33 74.5 C-26.58163629 59.86652892 -20.14360455 45.24186154 -13.6875 30.625 C-13.2845874 29.71226318 -12.8816748 28.79952637 -12.46655273 27.85913086 C-11.31559968 25.25215001 -10.16380015 22.64554488 -9.01171875 20.0390625 C-8.67911545 19.28553497 -8.34651215 18.53200745 -8.00382996 17.75564575 C-5.3769662 11.81727331 -2.68745311 5.91239685 0 0 Z M38 78 C33.66455563 87.18488911 29.90442135 96.56934662 26.16796875 106.0078125 C25.52511633 107.62644819 24.882072 109.24500767 24.23884583 110.86349487 C22.90174292 114.22961023 21.56648748 117.59645026 20.23266602 120.96386719 C18.51963853 125.2883897 16.80261678 129.61131293 15.08433056 133.93374825 C13.76108073 137.26335638 12.43954876 140.5936441 11.11858559 143.92416 C10.48546706 145.520017 9.85189121 147.11569265 9.21785545 148.71118546 C8.33779002 150.92674162 7.45995309 153.14316715 6.58276367 155.35986328 C6.31944748 156.02159042 6.05613129 156.68331757 5.78483582 157.36509705 C4.53027234 160.10081502 4.53027234 160.10081502 4 163 C26.44 163 48.88 163 72 163 C70.1437972 156.81265732 68.31488657 150.92311765 65.90551758 144.97998047 C65.61247238 144.24700241 65.31942719 143.51402435 65.01750183 142.75883484 C64.06393016 140.37662415 63.10430607 137.99690491 62.14453125 135.6171875 C61.47583312 133.95011309 60.80751969 132.28288432 60.13957214 130.61550903 C58.39258839 126.25753029 56.64043424 121.90164907 54.887146 117.54620361 C53.09412483 113.0893642 51.30606923 108.63053375 49.51757812 104.171875 C46.01653922 95.44597567 42.51002757 86.72228711 39 78 C38.67 78 38.34 78 38 78 Z " fill="#FFFFFF" transform="translate(3190,1708)"/>
<path d="M0 0 C2.51388117 -0.28666087 4.78074913 -0.37862623 7.29541016 -0.34057617 C8.42238564 -0.34123329 8.42238564 -0.34123329 9.5721283 -0.34190369 C12.06136858 -0.33980969 14.54993955 -0.31645062 17.0390625 -0.29296875 C18.76255933 -0.28737495 20.48606091 -0.28310383 22.20956421 -0.28010559 C26.75037763 -0.26863976 31.29090412 -0.2391578 35.831604 -0.20599365 C40.46321735 -0.1753301 45.09487696 -0.16160822 49.7265625 -0.14648438 C58.81783455 -0.11428963 67.90889343 -0.06307243 77 0 C78.10676694 2.36716257 79.21306056 4.73454448 80.3190918 7.10205078 C80.62870598 7.7641304 80.93832016 8.42621002 81.25731659 9.10835266 C84.16688409 15.33810391 87.00403049 21.59902886 89.8125 27.875 C90.0804538 28.47304443 90.34840759 29.07108887 90.6244812 29.68725586 C96.04816706 41.79736948 101.37790683 53.94840117 106.70257568 66.10229492 C112.73879463 79.87872343 118.82169358 93.63372551 124.9375 107.375 C131.49797919 122.11673415 138.04422004 136.86455292 144.5625 151.625 C144.9525119 152.5081488 145.3425238 153.39129761 145.74435425 154.3012085 C147.71023897 158.75308282 149.67575873 163.20511816 151.64111328 167.65722656 C155.19700396 175.7118926 158.75617828 183.76510768 162.31506348 191.81845093 C163.49241144 194.48282685 164.66957564 197.14728389 165.84667969 199.81176758 C169.52764718 208.14373439 173.20971419 216.4752105 176.89541626 224.80508423 C178.62013605 228.7032102 180.34426887 232.60159567 182.06835938 236.5 C182.88365983 238.34306539 183.699242 240.18600619 184.51513672 242.02880859 C198 272.4866799 198 272.4866799 198 274 C170.94 274 143.88 274 116 274 C105.605 248.26 105.605 248.26 95 222 C57.05 221.67 19.1 221.34 -20 221 C-20.99 223.97 -21.98 226.94 -23 230 C-23.61165416 231.65732523 -24.23687164 233.30982096 -24.88525391 234.953125 C-25.2221524 235.81010986 -25.5590509 236.66709473 -25.90615845 237.55004883 C-26.43600845 238.88652466 -26.43600845 238.88652466 -26.9765625 240.25 C-27.34727875 241.18932373 -27.717995 242.12864746 -28.09994507 243.09643555 C-28.87696173 245.06329674 -29.65518599 247.02968127 -30.43457031 248.99560547 C-31.63202525 252.01773026 -32.82404365 255.04196148 -34.015625 258.06640625 C-34.77311412 259.98189875 -35.53091528 261.89726788 -36.2890625 263.8125 C-36.8249852 265.1732666 -36.8249852 265.1732666 -37.37173462 266.56152344 C-37.7023288 267.39329102 -38.03292297 268.22505859 -38.37353516 269.08203125 C-38.6642691 269.81655518 -38.95500305 270.5510791 -39.25454712 271.30786133 C-40 273 -40 273 -41 274 C-43.49492388 274.09502416 -45.96206014 274.12557566 -48.45727539 274.11352539 C-49.23770706 274.11367142 -50.01813873 274.11381744 -50.82221985 274.1139679 C-53.4140598 274.11326858 -56.00582878 274.10547536 -58.59765625 274.09765625 C-60.3898464 274.09579213 -62.18203706 274.0943682 -63.97422791 274.09336853 C-68.70070797 274.08954284 -73.42715752 274.07971212 -78.15362549 274.06866455 C-82.9728555 274.05845153 -87.79209042 274.05387115 -92.61132812 274.04882812 C-102.07423219 274.03808989 -111.53711356 274.02101286 -121 274 C-113.55398311 255.8077248 -113.55398311 255.8077248 -109.828125 247.4453125 C-109.46820969 246.6324176 -109.10829437 245.81952271 -108.73747253 244.98199463 C-107.57698535 242.3621029 -106.41348367 239.74356217 -105.25 237.125 C-104.41650834 235.24440961 -103.58326193 233.3637105 -102.75024414 231.48291016 C-101.02538862 227.58908534 -99.29949935 223.69572145 -97.57275391 219.80273438 C-93.51977847 210.66364591 -89.47843114 201.5194187 -85.4375 192.375 C-85.04510132 191.48725891 -84.65270264 190.59951782 -84.24841309 189.68487549 C-78.47910429 176.63192523 -72.73212877 163.56931629 -67 150.5 C-60.87407899 136.53283309 -54.72893003 122.574332 -48.5625 108.625 C-48.16918488 107.73524475 -47.77586975 106.8454895 -47.37063599 105.92877197 C-44.18201215 98.71604137 -40.99209438 91.5038832 -37.80212402 84.29174805 C-35.40917531 78.88145467 -33.01664553 73.47097638 -30.62469482 68.0602417 C-29.83744833 66.27961812 -29.05005571 64.49905913 -28.26251221 62.71856689 C-23.78008124 52.58406003 -19.31375294 42.44278302 -14.875 32.2890625 C-14.0384962 30.37711441 -13.20198909 28.46516778 -12.36547852 26.55322266 C-10.77674615 22.92150653 -9.19187665 19.28813706 -7.60913086 15.65380859 C-6.8944968 14.01914963 -6.17974126 12.38454377 -5.46484375 10.75 C-4.98029724 9.63294174 -4.98029724 9.63294174 -4.48596191 8.49331665 C-3.16158596 5.47225647 -1.83509821 2.75264731 0 0 Z M37 78 C32.69123439 88.63719949 28.38804216 99.27663445 24.09200287 109.9189806 C22.09712651 114.86027277 20.10031952 119.80076643 18.09912109 124.73950195 C16.16887983 129.50332578 14.24368315 134.26915899 12.32200623 139.03644371 C11.58699327 140.85728524 10.85014805 142.67738823 10.11146545 144.49674416 C9.07925377 147.03994073 8.05351617 149.58565631 7.02929688 152.13208008 C6.7207225 152.88805481 6.41214813 153.64402954 6.09422302 154.4229126 C4.8907273 157.4312918 4 159.72801844 4 163 C26.44 163 48.88 163 72 163 C67.50011152 150.95165421 67.50011152 150.95165421 62.87207031 138.95727539 C62.61106033 138.29330246 62.35005035 137.62932953 62.08113098 136.94523621 C61.24844854 134.82872029 60.41362414 132.71306173 59.578125 130.59765625 C59.28824455 129.86336332 58.99836411 129.1290704 58.6996994 128.37252617 C57.17547912 124.5126847 55.64927772 120.65363316 54.12158203 116.79516602 C52.86279311 113.61472536 51.6081554 110.43269267 50.35693359 107.24926758 C48.83240281 103.37049316 47.30121324 99.494414 45.76503754 95.62023735 C45.18377581 94.15109607 44.60486754 92.68102139 44.02835846 91.21000862 C43.22878564 89.1713255 42.42069233 87.13622895 41.61035156 85.10180664 C40.92468109 83.36550743 40.92468109 83.36550743 40.22515869 81.59413147 C39.26851691 78.87684852 39.26851691 78.87684852 37 78 Z " fill="#FFFFFF" transform="translate(1843,1708)"/>
<path d="M0 0 C78.21 0 156.42 0 237 0 C237 49 237 49 225 63 C221.66663034 67.07385077 221.66663034 67.07385077 218.34375 71.15625 C215.10101712 75.0907659 211.76968392 78.946457 208.44140625 82.80859375 C205.41041716 86.33317903 202.43007419 89.89048832 199.5 93.5 C195.5662143 98.34596789 191.51552241 103.08098528 187.44140625 107.80859375 C184.41041716 111.33317903 181.43007419 114.89048832 178.5 118.5 C174.11287098 123.90076172 169.58776588 129.174677 165.05078125 134.44921875 C158.80572679 141.71031003 152.6036885 149.00553429 146.5625 156.4375 C142.60491812 161.30129025 138.53457554 166.05881231 134.44165039 170.80834961 C130.66784633 175.19661946 126.99472556 179.65804236 123.34765625 184.15234375 C120.12998422 188.05531032 116.82967547 191.8852022 113.51171875 195.703125 C109.19035566 200.70118506 105.13961322 205.82548347 101 211 C147.86 211.33 194.72 211.66 243 212 C243 232.46 243 252.92 243 274 C161.82 274 80.64 274 -3 274 C-3 224 -3 224 6 214 C7.45581797 212.26520886 8.89810473 210.51872617 10.3125 208.75 C13.80432708 204.43549115 17.37576419 200.20290489 21 196 C24.55467214 191.87544389 28.0679263 187.72791688 31.5 183.5 C35.4337857 178.65403211 39.48447759 173.91901472 43.55859375 169.19140625 C46.58958284 165.66682097 49.56992581 162.10951168 52.5 158.5 C56.4337857 153.65403211 60.48447759 148.91901472 64.55859375 144.19140625 C67.58958284 140.66682097 70.56992581 137.10951168 73.5 133.5 C77.88712902 128.09923828 82.41223412 122.825323 86.94921875 117.55078125 C93.19427321 110.28968997 99.3963115 102.99446571 105.4375 95.5625 C109.38784815 90.70759986 113.44977948 85.95789919 117.53637695 81.21801758 C121.52645125 76.57993315 125.41332801 71.86921294 129.2578125 67.109375 C131 65 131 65 133 63 C67.165 62.505 67.165 62.505 0 62 C0 41.54 0 21.08 0 0 Z " fill="#FFFFFF" transform="translate(2184,1708)"/>
<path d="M0 0 C1.68208689 1.46160716 3.35063 2.93907068 5 4.4375 C5.62003906 4.97632813 6.24007812 5.51515625 6.87890625 6.0703125 C21.45194269 19.52754801 31.97142347 40.55182025 33.17700195 60.34326172 C33.4589514 74.25651204 33.7023038 87.20650793 29 100.4375 C28.62617187 101.49582031 28.25234375 102.55414062 27.8671875 103.64453125 C22.85049474 116.58494072 15.69799582 126.71249027 6 136.4375 C5.21882812 137.241875 4.43765625 138.04625 3.6328125 138.875 C-7.14559242 149.32678659 -20.6550848 155.54458117 -35 159.4375 C-35.87269531 159.68242188 -36.74539063 159.92734375 -37.64453125 160.1796875 C-61.79797531 165.73307779 -87.34369434 159.28346123 -108 146.4375 C-111.84946214 143.62519864 -115.45200738 140.61924822 -119 137.4375 C-119.63421875 136.88578125 -120.2684375 136.3340625 -120.921875 135.765625 C-132.84831246 124.7145224 -140.66904522 108.86652641 -145 93.4375 C-145.226875 92.63699219 -145.45375 91.83648438 -145.6875 91.01171875 C-150.89636137 68.33146818 -145.97392601 44.03348244 -134.66796875 24.06640625 C-131.80409567 19.55262034 -128.44854532 15.51113805 -125 11.4375 C-124.54238281 10.83421875 -124.08476563 10.2309375 -123.61328125 9.609375 C-110.55543268 -7.17368562 -87.76975392 -16.4961389 -67.3125 -19.25 C-43.0901018 -21.53513191 -19.06382202 -15.28751848 0 0 Z " fill="#FF2C00" transform="translate(685,1761.5625)"/>
<path d="M0 0 C25.74 0 51.48 0 78 0 C78 90.42 78 180.84 78 274 C52.26 274 26.52 274 0 274 C0 183.58 0 93.16 0 0 Z " fill="#FFFFFF" transform="translate(2062,1708)"/>
</svg>
